<svg width="182" height="118" viewBox="0 0 182 118" fill="none" xmlns="http://www.w3.org/2000/svg">
<path fill-rule="evenodd" clip-rule="evenodd" d="M3.69669 117.704C3.58905 117.667 3.48292 117.627 3.37843 117.584C2.72369 117.311 2.13307 116.915 1.63558 116.425C1.61391 116.403 1.59241 116.382 1.5711 116.36C1.08178 115.861 0.686854 115.269 0.415346 114.613C0.372015 114.508 0.331826 114.401 0.2949 114.293C0.103754 113.735 0 113.135 0 112.512V101.529C0 100.396 0.918995 99.4767 2.05263 99.4767V99.4767C3.18627 99.4767 4.10526 100.396 4.10526 101.529V112.512C4.10526 112.705 4.14294 112.88 4.20748 113.036V113.036C4.34677 113.373 4.61443 113.641 4.95096 113.781V113.781C5.10661 113.846 5.28057 113.884 5.47368 113.884H18.2116C19.3483 113.884 20.2697 114.805 20.2697 115.942V115.942C20.2697 117.079 19.3483 118 18.2116 118H5.47368C4.85167 118 4.25388 117.896 3.69669 117.704ZM60.9748 118C62.1114 118 63.0329 117.079 63.0329 115.942V115.942C63.0329 114.805 62.1114 113.884 60.9748 113.884H35.4989C34.3623 113.884 33.4408 114.805 33.4408 115.942V115.942C33.4408 117.079 34.3623 118 35.4989 118H60.9748ZM103.738 118C104.875 118 105.796 117.079 105.796 115.942V115.942C105.796 114.805 104.875 113.884 103.738 113.884H78.2621C77.1254 113.884 76.2039 114.805 76.2039 115.942V115.942C76.2039 117.079 77.1254 118 78.2621 118H103.738ZM146.501 118C147.638 118 148.559 117.079 148.559 115.942V115.942C148.559 114.805 147.638 113.884 146.501 113.884H121.025C119.889 113.884 118.967 114.805 118.967 115.942V115.942C118.967 117.079 119.889 118 121.025 118H146.501ZM182 65.855C182 64.7213 181.081 63.8023 179.947 63.8023V63.8023C178.814 63.8023 177.895 64.7213 177.895 65.855V87.8195C177.895 88.9531 178.814 89.8721 179.947 89.8721V89.8721C181.081 89.8721 182 88.9531 182 87.8195V65.855ZM182 30.1805C182 29.0469 181.081 28.1279 179.947 28.1279V28.1279C178.814 28.1279 177.895 29.0469 177.895 30.1805V52.145C177.895 53.2787 178.814 54.1977 179.947 54.1977V54.1977C181.081 54.1977 182 53.2787 182 52.145V30.1805ZM121.025 0C119.889 0 118.967 0.921461 118.967 2.05814V2.05814C118.967 3.19482 119.889 4.11628 121.025 4.11628H146.501C147.638 4.11628 148.559 3.19482 148.559 2.05814V2.05814C148.559 0.921461 147.638 0 146.501 0H121.025ZM78.2621 0C77.1254 0 76.2039 0.921461 76.2039 2.05814V2.05814C76.2039 3.19482 77.1254 4.11628 78.2621 4.11628H103.738C104.875 4.11628 105.796 3.19482 105.796 2.05814V2.05814C105.796 0.921461 104.875 0 103.738 0H78.2621ZM35.4989 0C34.3623 0 33.4408 0.921461 33.4408 2.05814V2.05814C33.4408 3.19482 34.3623 4.11628 35.4989 4.11628H60.9748C62.1114 4.11628 63.0329 3.19482 63.0329 2.05814V2.05814C63.0329 0.921461 62.1114 0 60.9748 0H35.4989ZM0 16.4706C0 17.6043 0.918995 18.5233 2.05263 18.5233V18.5233C3.18627 18.5233 4.10526 17.6043 4.10526 16.4706V5.48837C4.10526 5.29474 4.14294 5.12032 4.20748 4.96425V4.96425C4.34677 4.62745 4.61443 4.3587 4.95096 4.21877V4.21877C5.10661 4.15406 5.28057 4.11628 5.47368 4.11628H18.2116C19.3483 4.11628 20.2697 3.19482 20.2697 2.05814V2.05814C20.2697 0.921461 19.3483 0 18.2116 0H5.47368C4.85166 0 4.25388 0.104033 3.69669 0.295691C3.58904 0.332717 3.48292 0.373013 3.37843 0.416461C2.72369 0.688698 2.13307 1.08468 1.63558 1.57532C1.61391 1.59669 1.59241 1.61824 1.5711 1.63997C1.08178 2.13879 0.686854 2.731 0.415346 3.38749C0.372015 3.49227 0.331826 3.59868 0.2949 3.70661C0.103754 4.26529 0 4.86469 0 5.48837V16.4706ZM0 30.1805C0 29.0469 0.918995 28.1279 2.05263 28.1279V28.1279C3.18627 28.1279 4.10526 29.0469 4.10526 30.1805V52.1451C4.10526 53.2787 3.18627 54.1977 2.05263 54.1977V54.1977C0.918995 54.1977 0 53.2787 0 52.1451V30.1805ZM0 65.855C0 64.7213 0.918995 63.8023 2.05263 63.8023V63.8023C3.18627 63.8023 4.10526 64.7213 4.10526 65.855V87.8195C4.10526 88.9531 3.18627 89.8721 2.05263 89.8721V89.8721C0.918995 89.8721 0 88.9531 0 87.8195V65.855ZM161.73 2.05814C161.73 0.921461 162.652 0 163.788 0H176.526C177.148 0 177.746 0.104032 178.303 0.295691C178.411 0.332717 178.517 0.373013 178.622 0.416461C179.276 0.688698 179.867 1.08468 180.364 1.57532C180.386 1.59669 180.408 1.61824 180.429 1.63997C180.918 2.13879 181.313 2.731 181.585 3.38749C181.628 3.49226 181.668 3.59868 181.705 3.70661C181.896 4.26529 182 4.86468 182 5.48837V16.4706C182 17.6043 181.081 18.5233 179.947 18.5233V18.5233C178.814 18.5233 177.895 17.6043 177.895 16.4706V5.48837C177.895 5.29474 177.857 5.12032 177.793 4.96425V4.96425C177.653 4.62746 177.386 4.3587 177.049 4.21877V4.21877C176.893 4.15406 176.719 4.11628 176.526 4.11628H163.788C162.652 4.11628 161.73 3.19482 161.73 2.05814V2.05814ZM179.947 99.4767C181.081 99.4767 182 100.396 182 101.529V112.512C182 113.135 181.896 113.735 181.705 114.293C181.668 114.401 181.628 114.508 181.585 114.613C181.313 115.269 180.918 115.861 180.429 116.36C180.408 116.382 180.386 116.403 180.364 116.425C179.867 116.915 179.276 117.311 178.622 117.584C178.517 117.627 178.411 117.667 178.303 117.704C177.746 117.896 177.148 118 176.526 118H163.788C162.652 118 161.73 117.079 161.73 115.942V115.942C161.73 114.805 162.652 113.884 163.788 113.884H176.526C176.719 113.884 176.893 113.846 177.049 113.781V113.781C177.386 113.641 177.653 113.373 177.793 113.036V113.036C177.857 112.88 177.895 112.705 177.895 112.512V101.529C177.895 100.396 178.814 99.4767 179.947 99.4767V99.4767Z" fill="#AFAFAF"/>
<path fill-rule="evenodd" clip-rule="evenodd" d="M92 43C93.1046 43 94 43.8954 94 45V57H106C107.105 57 108 57.8954 108 59C108 60.1046 107.105 61 106 61H94V73C94 74.1046 93.1046 75 92 75C90.8954 75 90 74.1046 90 73V61H78C76.8954 61 76 60.1046 76 59C76 57.8954 76.8954 57 78 57H90V45C90 43.8954 90.8954 43 92 43Z" fill="#AFAFAF"/>
</svg>
